<?xml version="1.0" encoding="UTF-8"?>
<svg version="1.1" viewBox="0 0 330.21 400.07" xmlns="http://www.w3.org/2000/svg">
 <g fill-opacity=".99608" stroke="#000" stroke-width="4.0567">
  <path d="m2.2997 74.074c22.745-16.357 54.861-29.935 54.861-29.935l97.3-41.353 35.42 129.8s13.354 51.012 34.304 85.021c-17.24 57.133-78.072 78.434-78.072 78.434l-79.189 33.658-60.592-222.04s-5.6514-21.381-4.0321-33.585z" fill="#e6e6e6"/>
  <path d="m241.85 375.22c-26.39 8.8289-60.957 12.191-60.957 12.191l-104.79 10.391 2.8665-134.78s1.6696-52.802-8.7434-91.615c32.669-49.486 96.893-51.627 96.893-51.627l85.283-8.4601-4.9023 230.57s-0.64748 22.147-5.6519 33.337z" fill="#f2f2f2"/>
  <path d="m154.2 60.469c26.292-9.1336 60.82-12.895 60.82-12.895l104.67-11.603-1.3937 134.81s-1.0918 52.818 9.7442 91.509c-32.126 49.861-96.323 52.744-96.323 52.744l-85.184 9.4461 2.3826-230.61s0.40493-22.153 5.287-33.4z" fill="#f9f9f9"/>
 </g>
</svg>
