<?xml version="1.0" encoding="UTF-8"?>
<svg version="1.1" viewBox="0 0 310.47 399.79" xmlns="http://www.w3.org/2000/svg">
 <title>Stone</title>
 <path d="m68.463 2.0509c-17.638 2.8389-14.251 25.354-24.181 36.762-6.3372 20.955-13.521 41.793-10.692 64.225 1.3815 20.679-9.9024 38.469-11.874 58.465-1.3874 17.025-8.0843 33.164-9.3562 50.094-5.8646 10.548-15.256 24.504-7.3697 34.284-6.3126 15.435-1.9598 34.133 10.633 45.114 10.713 16.207 7.7632 37.464 18.571 53.793 3.1373 17.584 23.427 13.356 33.931 22.559 8.7252 14.459 25.469 15.769 40.379 17.613 21.894 2.9982 43.761 7.1716 65.711 9.0682 22.308 0.30235 44.679-1.3327 65.903 3.2146 19.749 3.4872 32.325-10.656 51.507-13.518 29.617 0.69759 11.641-30.57 9.2972-47.44-2.6684-18.661-6.556-36.997-5.7213-55.785-0.90275-22.508-5.4476-44.803-4.1134-67.478 4.9283-18.827-20.585-22.88-17.833-41.015-0.20071-17.621 4.9916-37.475-8.743-51.502-7.7728-8.4702-16.841-9.2729-22.883-20.583-12.637-10.646-19.774-24.834-29.371-37.772-9.9385-17.396-28.128-35.161-49.593-31.299-14.469-3.1964-27.637-11.716-42.233-15.314-17.595-5.7461-32.426-14.271-51.969-13.486z" fill="#4d4d4d" stroke="#000" stroke-width="4"/>
 <path d="m68.802 3.317c-15.973 1.727-13.747 21.525-22.031 31.938-5.497 10.353-4.5382 21.471-9.5071 32.816-4.3948 11.404-1.046 24.09-2.0875 36.033-0.0862 10.69-2.3583 21.348-4.4304 31.889-9.8702 14.958-6.7788 24.673-8.571 37.317-3.0237 11.892-6.9392 19.848-7.0821 35.983-2.9868 10.056-15.282 16.747-13.89 27.83 9.1873 7.7623-4.3652 32.355 6.2711 40.657 9.5207 14.047 14.196 20.584 17.564 33.29 1.3949 7.9079 0.97173 28.145 13.491 24.641 2.816-11.322 14.778-11.882 22.208-16.092 4.2977-12.377-13.032-15.759-16.6-26.169-8.1016-4.0423-12.102-12.894-18.573-18.217 3.0226-11.028 14.482 4.4748 21.416 1.475 10.522-8.4089 8.7289-24.743 8.3351-36.961-3.1396-9.5521-9.2619-18.075-9.5638-28.496-1.6868-11.435-10.548-21.425-4.4432-33.166 1.383-12.735 7.88-24.478 4.3727-37.222-0.12366-13.293 3.9444-25.987 9.7462-37.767 4.3496-10.808 16.991-19.828 11.537-32.777-5.1746-13.113-2.5521-27.286-3.1777-40.992 3.37-5.8442 24.088-13.431 9.7637-17.9-12.602 0.49221-0.4497-4.1594-4.7483-8.1093z"/>
 <path d="m41.385 262.2c-6.4202 2.7019-16.266 5.0911-19.383 10.634 1.3707 8.9559 8.0482 15.8 11.698 23.844 4.0702 8.8661 14.802 9.669 21.542 15.639 6.8778 2.7709 6.8754 9.1009 7.3648 15.096 6.3335 5.136 10.886 12.368 13.122 20.256 3.92 10.122 15.376 14.332 19.713 24.099 3.8901 9.3378 13.882 2.9872 20.801 6.4883 10.197 5.1177 21.825 3.6068 32.805 3.2896 6.3584 0.13315 10.287-5.5932 16.037-2.472 5.9879 0.05 16.314 0.28908 18.062-6.5784-6.3702-4.7907-4.9848-15.966-13.413-18.734-7.0442-4.2157-13.033-11.404-21.902-11.409-9.4824-1.3629-18.272-5.6348-26.031-11.093-7.049-0.28162-13.367-2.5251-18.709-7.4211-8.9287-6.6021-12.203-17.67-18.187-26.589-2.2-2.8331-7.0535-12.786-9.8474-5.4481-2.7721-5.3567-5.0965-15.746-11.282-20.7-6.3236-4.067-17.107 3.0946-20.221-7.1224l-0.98402-1.0201zm32.24 37.24c0.0495 3.66-2.3617 7.546 0 0z" fill="#1a1a1a"/>
 <path d="m215.23 217.17c1.9519 9.2513 5.5774 18.521 10.813 26.342 4.658 9.1471 11.065 17.621 14.315 27.3 1.5587 12.634 17.31 5.7371 25.787 8.3606 5.18 1.8907 16.776-1.2016 18.262 3.4379-11.456 11.249-28.891 8.07-42.968 12.829-13.311 4.9001-24.338 14.88-38.543 17.645-12.134 4.174-24.814 6.506-37.09 10.239-12.116 5.2348-25.019 8.1462-37.46 12.442 11.132 14.558 31.965 16.105 43.493 30.102 5.643 6.0087 1.3115 20.361 11.536 21.395 7.0293-7.2756 17.261-10.581 26.799-13.235 10.11 0.75106 24.897-6.1601 31.933 3.1916-0.90768 9.4829 7.5312 10.792 12.809 16.752 8.9491 4.3017 13.588-8.9536 22.656-9.0883 9.601-3.0441 19.86-3.7134 29.193-7.6542 2.6223-15.871-6.8372-30.229-7.7699-45.787-1.2686-11.134-3.9501-22.118-5.1962-33.2 1.566-13.957-0.80614-27.809-2.1668-41.676-0.466-9.0507-1.3508-18.113-2.5681-27.109-5.3509-0.1474-13.895 2.4595-20.756 1.9503-10.277 0.0993-21.194 1.6207-30.365-4.2435-7.217-4.3812-14.412-8.1401-22.713-9.9937z" fill="#333" style="paint-order:fill markers stroke"/>
 <path d="m7.7969 262.93c-9.0794 6.42 4.1918 21.207 9.6254 27.264 10.238 14.762 7.2886 34.275 16.568 49.558 3.1409 16.245 13.318 19.648 31.922 23.124 9.6982 10.711 18.775 20.27 32.689 18.16 23.324 5.8299 46.637 8.0603 69.904 12.063 18.845 0.38022 37.877-1.1576 56.723-1.0353 11.082 8.0648 19.262 1.032 32.177 3.9203 10.234 1.0436 13.295-14.19 0.5296-13.907-7.6316-2.6337-13.472-15.421-23.067-11.856-11.406 3.7029-24.533-0.27101-35.693 4.724-8.5793 9.0025-21.163 2.7497-32.006 2.9066-14.323-0.42253-28.677 0.37399-43-0.39986-10.552-4.9831-30.794 1.2148-31.745-15.61-2.5258-11.006-8.074-21.533-17.624-27.959-10.502-10.698-17.144-25.265-30.653-32.851-11.53-9.3979-16.612-24.28-27.144-34.436-2.8775-1.5713-5.8433-3.4447-9.2064-3.6661z"/>
 <path d="m160.24 31.051c-5.9085-2.431-15.011 0.53675-11.61 8.4313 3.4217 4.397 10.52 5.4012 11.794 11.361 5.6152 4.545 10.134 12.31 18.15 12.286 7.4633 2.8772 3.7584 12.572 7.2838 18.206 3.4302 6.5704 8.4132 12.164 12.415 18.373 6.2096 7.3762 14.926 13.052 18.154 22.576 2.1656 5.2362 3.8115 10.849 7.4684 15.299 1.3627 7.1795 8.0464 10.829 14.774 9.7487 5.3958 1.0427 12.317 4.1047 16.753-0.68416 3.1155-3.6797 9.7604-5.118 11.045-11.089 2.9406-5.5384-0.48991-10.825-3.3854-15.184-3.5264-5.5017-8.8772-7.8836-14.606-9.5596-4.9847-7.7085-10.685-11.768-15.806-17.907-5.1789-5.7046-10.483-11.16-13.119-18.466-5.1803-7.6716-11.757-14.323-16.122-22.557-3.0139-5.2543-7.2864-10.066-13.05-12.048-5.5699-2.7543-10.948-8.4575-17.485-8.3803-4.1516 0.68971-9.1211 2.762-12.656-0.40737z" fill="#666"/>
</svg>
