<?xml version="1.0" encoding="UTF-8"?>
<!-- Created with Inkscape (http://www.inkscape.org/) -->
<svg version="1.1" viewBox="0 0 228.26 400" xmlns="http://www.w3.org/2000/svg">
 <path d="m184.12 1.9931-1.4583 3.6779c-27.193 61.894-47.87 130.04-76.022 190.47-23.509-45.546-47.311-93.123-70.828-139.58l-1.7852-3.5249-2.621 2.9564c-16.402 18.503-14.028 41.424-6.8935 59.057l0.03692 0.0881 0.03414 0.0796 35.764 73.83 0.73909 1.5208 17.17 38.519 1.9103 3.9428 7.5701 15.626c-8.2494 21.824-12.184 39.875-15.192 52.268-1.5294 6.3108-2.8569 11.172-4.2299 14.129-0.68509 1.4782-1.3787 2.4447-1.9188 2.9279-0.53726 0.48326-0.82438 0.59697-1.4213 0.56853-1.5521-0.0285-2.3367-0.34112-3.3288-0.88123-0.9949-0.5401-2.1746-1.4498-3.9001-2.4163-3.4568-1.9614-8.8123-3.7523-19.367-3.4112-21.394 0.68225-37.188 22.031-36.361 42.839v0.19898c-0.4662 20.666 14.751 42.185 36.825 42.952v0.0285h0.16771c1.3247 0.11371 2.6466 0.17056 3.9713 0.14214 20.535-0.39797 38.774-17.34 40.695-37.95 5e-3 -0.0569 0.01985-0.14213 0.02551-0.19899 4.1361-24.476 1.7312-53.016 26.144-84.74l0.25585-0.31269 1.2792 1.3645c27.27 29.479 27.364 58.19 33.757 82.238h8e-3c3.6556 19.643 22.173 34.51 41.912 34.169 2.0098-0.0285 4.011-0.25584 5.998-0.59695h0.0625c0.0341-0.0285 0.0683-0.0285 0.10517-0.0285 21.911-2.7574 35.121-25.613 32.79-46.136 0-0.0569-0.0285-0.14214-0.0285-0.19899-1.0518-20.808-18.753-40.622-40.116-39.343-10.541 0.62539-15.715 2.8711-18.978 5.1168-1.6288 1.137-2.7204 2.1604-3.6585 2.7858-0.93809 0.62538-1.6971 0.9949-3.2435 1.1939-0.59696 0.0569-0.88407-0.0285-1.4725-0.45483-0.58844-0.45482-1.3787-1.3645-2.2031-2.8142-1.6544-2.8711-3.4368-7.6753-5.5631-13.929-4.1787-12.28-9.8414-30.152-20.297-51.464l5.259-13.929 1.3758-3.6614 13.272-38.138 0.66517-1.7653 47.58-126.29 0.0256-0.09101 0.0284-0.08814c5.4892-18.156 6.3619-41.099-11.666-58.054l-2.8768-2.7088zm-75.075 239.25c3.5846 0.0227 6.5381 2.8256 6.7002 6.4671 0.16488 3.758-2.6835 6.8764-6.4415 7.0441-3.758 0.16487-6.9049-2.692-7.0697-6.4415-0.16772-3.7494 2.7147-6.8963 6.4671-7.0612 0.11655-5e-3 0.22742-0.0114 0.34397-8e-3zm74.256 83.515c7.7065-0.0285 15.609 3.3259 20.843 10.632 4.1333 5.7706 5.4778 14.1 3.8007 21.491-1.6772 7.3909-6.1544 13.616-13.44 16.033l-0.0967 0.0285-0.0995 0.0569c-2.5101 1.0518-5.0116 1.5634-7.4705 1.6203-7.5246 0.14214-14.882-3.9797-19.899-10.262-5.0173-6.2539-7.5473-14.469-5.8275-22.059l0.0171-0.0569 0.0114-0.0853c1.8478-11.257 11.604-17.397 22.161-17.397zm-138.93 5.1452h0.80164c9.614 0.0853 18.469 5.2874 21.095 15.436l0.01985 0.0853 0.02551 0.0569c2.4447 7.533 0.55432 16.118-4.0422 22.855-4.5966 6.7656-11.757 11.484-19.455 11.683-2.2059 0.0569-4.4915-0.22741-6.7855-0.9665l-0.09667-0.0285h-0.10803c-7.4734-1.734-12.494-7.5615-14.836-14.754-2.3395-7.2204-1.7539-15.635 1.8392-21.775 4.8979-8.329 13.304-12.394 21.542-12.593z" fill="#ccc" stroke="#000" stroke-linecap="square" stroke-linejoin="round" stroke-width="3.9701"/>
</svg>
